<?xml version="1.0" encoding="UTF-8" standalone="no"?>
<svg
   fill="none"
   viewBox="0 0 36 36"
   version="1.1"
   id="svg3"
   sodipodi:docname="favicon.svg"
   inkscape:version="1.3 (0e150ed, 2023-07-21)"
   xmlns:inkscape="http://www.inkscape.org/namespaces/inkscape"
   xmlns:sodipodi="http://sodipodi.sourceforge.net/DTD/sodipodi-0.dtd"
   xmlns:xlink="http://www.w3.org/1999/xlink"
   xmlns="http://www.w3.org/2000/svg"
   xmlns:svg="http://www.w3.org/2000/svg">
  <sodipodi:namedview
     id="namedview3"
     pagecolor="#ffffff"
     bordercolor="#000000"
     borderopacity="0.25"
     inkscape:showpageshadow="2"
     inkscape:pageopacity="0.0"
     inkscape:pagecheckerboard="0"
     inkscape:deskcolor="#d1d1d1"
     inkscape:zoom="1.2325395"
     inkscape:cx="19.471993"
     inkscape:cy="21.094659"
     inkscape:window-width="1312"
     inkscape:window-height="449"
     inkscape:window-x="0"
     inkscape:window-y="38"
     inkscape:window-maximized="0"
     inkscape:current-layer="svg3" />
  <defs
     id="defs3">
    <linearGradient
       id="gradient"
       x1="16"
       x2="16"
       y1="32"
       y2="24"
       gradientUnits="userSpaceOnUse">
      <stop
         stop-color="#000"
         id="stop2" />
      <stop
         offset="1"
         stop-color="#000"
         stop-opacity="0"
         id="stop3" />
    </linearGradient>
    <linearGradient
       id="linear-gradient"
       x1="210.438"
       x2="210.438"
       y1="619.91498"
       y2="721.73798"
       gradientUnits="userSpaceOnUse">
      <stop
         offset=".524"
         stop-color="#f9ba16"
         id="stop1" />
      <stop
         offset="1"
         stop-color="#c49511"
         id="stop2-3" />
    </linearGradient>
    <linearGradient
       inkscape:collect="always"
       xlink:href="#linear-gradient-2"
       id="linearGradient1"
       gradientUnits="userSpaceOnUse"
       x1="104.782"
       y1="496.95599"
       x2="46.691002"
       y2="597.57202" />
    <linearGradient
       id="linear-gradient-2"
       x1="104.782"
       x2="46.691002"
       y1="496.95599"
       y2="597.57202"
       gradientUnits="userSpaceOnUse">
      <stop
         offset=".283"
         stop-color="#f9ba16"
         id="stop3-8" />
      <stop
         offset="1"
         stop-color="#c49511"
         id="stop4" />
    </linearGradient>
    <linearGradient
       id="linear-gradient-3"
       x1="211.75101"
       x2="211.75101"
       y1="417.11099"
       y2="364.211"
       gradientUnits="userSpaceOnUse">
      <stop
         offset=".005"
         stop-color="#f9ba16"
         id="stop5" />
      <stop
         offset="1"
         stop-color="#c49511"
         id="stop6" />
    </linearGradient>
    <linearGradient
       id="linear-gradient-4"
       x1="199.703"
       x2="141.612"
       y1="499.784"
       y2="600.401"
       gradientTransform="matrix(-1,0,0,1,520.412,0)"
       xlink:href="#linear-gradient-2" />
  </defs>
  <style
     id="style3">&#10;    @media (prefers-color-scheme:dark){:root{filter:invert(100%)}}&#10;  </style>
  <g
     id="g1"
     transform="matrix(0.05084958,0,0,0.03323521,7.4249892,1.5340592)">
    <path
       d="m 312.77,318.26 c -3.15,-12.578 -7.41,-18.857 -17.857,-18.857 0,0 -14.84,1.245 -17.97,16.33 -3.148,15.084 -3.148,27.661 12.559,32.055 15.725,4.412 26.398,-16.97 23.268,-29.529 z m -64.11,5.015 c -0.264,-1.867 -5.657,-16.33 6.901,-26.398 12.577,-10.05 66.938,-57.812 79.987,-45.254 13.048,12.577 7.391,30.17 -12.728,44.01 0,0 23.25,32.676 -1.263,55.303 -24.513,22.627 -66.618,17.593 -72.897,-27.661 z M 229.804,117.746 c 0,0 -28.208,14.821 -33.94,-6.279 -3.47,-12.727 15.707,-28.755 25.134,-18.855 1.377,1.433 11.936,-23.25 11.936,-23.25 0,0 -44.877,-13.84 -57.944,37.712 -13.067,51.533 56.266,44.613 62.45,34.563 z m 99.823,69.71 c -15.594,38.315 -96.203,43.18 -108.1,43.69 h -0.038 l -15.5,-0.604 c 0,0 -94.486,-2.395 -110.061,-44.933 a 34.926,34.926 0 0 1 -1.66,-6.355 c 0,0 0.472,-28.85 35.355,-13.765 34.883,15.085 4.714,-32.054 -6.6,-53.739 -8.748,-16.762 -10.163,-51.156 20.082,-75.423 0.019,-0.019 0.057,-0.038 0.076,-0.075 8.88,-7.109 20.515,-13.35 35.467,-18.008 a 112.306,112.306 0 0 1 38.033,-5.185 0.908,0.908 0 0 1 0.226,0 132.472,132.472 0 0 1 30.49,5.845 c 2.941,0.905 5.732,1.886 8.41,2.923 a 0.066,0.066 0 0 1 0.037,0.019 119.158,119.158 0 0 1 34.148,21.552 c 0.132,0.15 0.264,0.264 0.34,0.358 0.131,0.113 0.207,0.189 0.207,0.189 22.325,23.513 20.42,53.249 12.482,68.465 -11.313,21.685 -41.482,68.824 -6.6,53.74 34.882,-15.084 35.356,13.764 35.356,13.764 a 33.1,33.1 0 0 1 -2.15,7.542 z"
       class="cls-1"
       id="path6"
       style="fill:#171717" />
    <path
       d="m 286.692,309.114 c 4.337,0 7.844,4.092 7.844,9.126 0,5.034 -3.507,9.127 -7.844,9.127 -4.318,0 -7.825,-4.092 -7.825,-9.127 0,-5.035 3.507,-9.126 7.825,-9.126 z"
       class="cls-2"
       id="path7"
       style="fill:#231f20" />
    <path
       d="m 278.867,318.24 c 0,5.035 3.507,9.127 7.825,9.127 4.337,0 7.844,-4.092 7.844,-9.127 0,-5.035 -3.507,-9.126 -7.844,-9.126 -4.318,0 -7.825,4.092 -7.825,9.126 z m 16.046,-18.837 c 10.446,0 14.708,6.28 17.857,18.856 3.13,12.558 -7.543,33.94 -23.268,29.529 -15.707,-4.394 -15.707,-16.97 -12.558,-32.055 3.13,-15.085 17.97,-16.33 17.97,-16.33 z M 195.864,111.467 c 5.732,21.1 33.94,6.28 33.94,6.28 l 7.637,23.89 c -6.185,10.05 -75.518,16.97 -62.45,-34.563 13.066,-51.552 57.943,-37.712 57.943,-37.712 0,0 -10.559,24.683 -11.934,23.25 -9.428,-9.9 -28.605,6.128 -25.135,18.855 z"
       class="cls-3"
       id="path8"
       style="fill:#ffffff" />
    <path
       d="m 243.475,364.211 -28.02,33.922 a 4.234,4.234 0 0 1 -6.694,0 l -28,-33.922 28.603,-37.391 a 3.47,3.47 0 0 1 5.506,0 z"
       class="cls-1"
       id="path9"
       style="fill:#171717" />
    <path
       fill="#f9ba16"
       d="m 100.698,350.277 c 24.513,22.627 66.637,17.592 72.916,-27.662 0.264,-1.867 5.657,-16.33 -6.92,-26.398 -12.558,-10.05 -66.938,-57.812 -79.968,-45.254 -13.048,12.577 -7.391,30.17 12.728,44.01 0,0 -23.268,32.677 1.244,55.304 z m 108.063,47.856 a 4.234,4.234 0 0 0 6.694,0 l 28.02,-33.922 -28.605,-37.391 a 3.47,3.47 0 0 0 -5.506,0 l -28.604,37.39 z m 46.8,-101.256 c -12.558,10.069 -7.165,24.531 -6.901,26.398 6.279,45.254 48.384,50.288 72.897,27.661 24.513,-22.627 1.263,-55.304 1.263,-55.304 20.12,-13.84 25.776,-31.432 12.728,-44.01 -13.049,-12.557 -67.41,35.205 -79.987,45.255 z M 32.421,564.083 a 3.329,3.329 0 0 1 -0.377,-0.076 c -16.348,-3.77 -23.89,-37.711 -15.084,-74.16 8.786,-36.467 18.855,-84.078 17.253,-99.313 -1.602,-15.235 9.145,-77.931 11.653,-95.543 2.507,-17.592 -5.355,-60.96 -5.355,-60.96 -0.17,-8.75 -0.302,-13.822 -0.302,-13.822 -3.15,-11.313 -5.996,-28.284 -5.996,-28.284 l 3.94,5.016 c -3.94,-5.016 0,-11.314 0,-11.314 0,0 7.09,3.15 3.32,0 -3.772,-3.13 -5.035,-8.164 0,-7.542 4.826,0.622 50.834,7.014 54.455,7.524 15.575,42.538 110.061,44.933 110.061,44.933 l 15.5,0.603 h 0.037 c 11.898,-0.509 92.507,-5.374 108.1,-43.689 l 0.114,0.057 c 0,0 49.647,-6.901 54.682,-7.542 5.016,-0.623 3.771,4.412 0,7.542 -3.771,3.149 3.319,0 3.319,0 0,0 3.94,6.298 0,11.314 l 3.94,-5.016 c 0,0 -2.866,16.97 -6.015,28.284 0,0 -0.132,5.072 -0.301,13.82 0,0 -7.863,43.37 -5.355,60.962 2.526,17.611 13.274,80.307 11.671,95.542 -1.603,15.235 8.448,62.847 17.254,99.314 8.786,36.448 1.244,70.389 -15.085,74.16 0,0 6.6,39.597 5.336,54.682 -1.264,15.085 -5.336,7.542 -5.336,8.805 v 1.245 c 0,0 5.016,18.856 -11.314,30.17 0,0 2.508,16.347 -35.203,38.974 -37.711,22.627 -139.138,27.888 -212.449,16.348 C 114.067,712.837 78.712,699.109 78.712,699.109 41.001,676.482 43.509,660.134 43.509,660.134 27.161,648.821 32.195,629.964 32.195,629.964 v -1.244 c 0,-1.263 -4.092,6.28 -5.336,-8.805 -1.263,-15.085 5.336,-54.682 5.336,-54.682 z"
       id="path10" />
    <path
       d="m 135.563,308.454 c 4.337,0 7.844,4.092 7.844,9.127 0,5.035 -3.507,9.126 -7.844,9.126 -4.318,0 -7.825,-4.092 -7.825,-9.126 0,-5.034 3.507,-9.127 7.825,-9.127 z"
       class="cls-2"
       id="path11"
       style="fill:#231f20" />
    <path
       d="m 173.614,322.615 c -6.28,45.254 -48.403,50.288 -72.916,27.662 -24.513,-22.626 -1.244,-55.305 -1.244,-55.305 -20.12,-13.84 -25.776,-31.432 -12.728,-44.01 13.03,-12.557 67.41,35.205 79.968,45.255 12.577,10.069 7.184,24.531 6.92,26.398 z m -46.272,-23.871 c -10.428,0 -14.69,6.279 -17.838,18.855 -3.149,12.558 7.542,33.94 23.25,29.529 15.725,-4.394 15.725,-16.97 12.576,-32.055 -3.149,-15.085 -17.988,-16.33 -17.988,-16.33 z"
       class="cls-1"
       id="path12"
       style="fill:#171717" />
    <path
       d="m 360.532,438.616 c 0,0 -5.657,8.485 0,23.57 0,0 -5.657,5.657 -10.371,0 0,0 0.943,12.256 5.185,18.856 0,0 -13.67,3.77 -17.441,0 0,0 5.656,7.542 0,19.798 a 0.97,0.97 0 0 1 -0.264,-0.132 c -0.51,-0.245 -1.961,-1.075 -6.015,-3.639 l -4.413,-2.772 a 0.985,0.985 0 0 0 -1.527,0.754 c -0.17,2.66 -1.32,8.73 -6.637,20.874 0,0 -0.32,-2.508 -6.92,-7.222 0,0 -0.623,10.05 -9.108,14.764 M 248.66,323.275 c -0.264,-1.867 -5.657,-16.33 6.901,-26.398 12.577,-10.05 66.938,-57.812 79.987,-45.254 13.048,12.577 7.391,30.17 -12.728,44.01 0,0 23.25,32.676 -1.263,55.303 -24.513,22.627 -66.618,17.593 -72.897,-27.661 z"
       class="cls-5"
       id="path13"
       style="fill:none;stroke:#231f20;stroke-width:2px;stroke-miterlimit:10" />
    <path
       d="m 294.913,299.403 c 0,0 -14.84,1.245 -17.97,16.33 -3.148,15.084 -3.148,27.661 12.559,32.055 15.725,4.412 26.398,-16.97 23.268,-29.529 -3.15,-12.577 -7.41,-18.856 -17.857,-18.856 z M 216.68,13.059 c -45.612,-2.998 -71.991,21.74 -73.5,23.193 M 255.806,21.827 a 125.025,125.025 0 0 0 -8.41,-2.923 132.472,132.472 0 0 0 -30.49,-5.845 m 73.425,30.697 a 2.019,2.019 0 0 0 -0.339,-0.358 C 281.959,35.101 270.834,27.597 255.844,21.846 m -34.318,209.299 c 11.898,-0.509 92.507,-5.374 108.1,-43.689 a 33.1,33.1 0 0 0 2.15,-7.542 c 0,0 -0.47,-28.85 -35.354,-13.765 -34.884,15.085 -4.714,-32.055 6.6,-53.739 7.938,-15.216 9.842,-44.952 -12.483,-68.465 m -70.483,187.257 1.433,-0.057 M 32.195,565.233 c 0,0 -6.6,39.597 -5.336,54.682 1.244,15.084 5.336,7.542 5.336,8.805 v 1.245 c 0,0 -5.034,18.856 11.314,30.17 0,0 -2.508,16.347 35.203,38.974 0,0 35.355,13.727 56.172,17.008 73.311,11.54 174.737,6.28 212.449,-16.348 37.712,-22.628 35.203,-38.975 35.203,-38.975 16.33,-11.313 11.314,-30.169 11.314,-30.169 v -1.244 c 0,-1.264 4.073,6.279 5.336,-8.806 1.263,-15.085 -5.336,-54.682 -5.336,-54.682 M 65.513,437.956 c 0,0 5.657,8.485 0,23.57 0,0 5.657,5.657 10.371,0 0,0 -0.943,12.256 -5.185,18.856 0,0 13.67,3.77 17.441,0 0,0 -5.656,7.542 0,19.798 a 3.41,3.41 0 0 0 0.641,-0.34 c 0.736,-0.395 2.3,-1.319 5.638,-3.43 l 4.394,-2.773 a 0.982,0.982 0 0 1 1.527,0.755 c 0.189,2.658 1.339,8.73 6.656,20.873 0,0 0.302,-2.508 6.901,-7.222 0,0 0.642,10.05 9.127,14.764 m 50.59,-200.192 c 0.264,-1.867 5.657,-16.33 -6.92,-26.398 -12.558,-10.05 -66.938,-57.812 -79.968,-45.254 -13.048,12.577 -7.391,30.17 12.728,44.01 0,0 -23.268,32.677 1.244,55.304 24.512,22.627 66.637,17.592 72.916,-27.662 z"
       class="cls-5"
       id="path14"
       style="fill:none;stroke:#231f20;stroke-width:2px;stroke-miterlimit:10" />
    <path
       d="m 127.342,298.744 c 0,0 14.84,1.244 17.988,16.329 3.148,15.085 3.149,27.661 -12.577,32.055 -15.707,4.412 -26.398,-16.97 -23.249,-29.529 3.149,-12.576 7.41,-18.855 17.838,-18.855 z M 290.539,43.945 c 0,0 -0.076,-0.076 -0.208,-0.189 -0.075,-0.094 -0.207,-0.207 -0.339,-0.358 a 119.158,119.158 0 0 0 -34.148,-21.552 0.066,0.066 0 0 0 -0.038,-0.02 112.207,112.207 0 0 0 -38.9,-8.767 0.908,0.908 0 0 0 -0.225,0 112.306,112.306 0 0 0 -38.033,5.185 c -14.952,4.658 -26.586,10.899 -35.467,18.008 -0.02,0.037 -0.057,0.056 -0.076,0.075 -30.245,24.267 -28.83,58.66 -20.081,75.423 11.313,21.684 41.482,68.824 6.6,53.74 -34.882,-15.084 -35.355,13.764 -35.355,13.764 a 34.926,34.926 0 0 0 1.659,6.355 c 15.575,42.538 110.061,44.933 110.061,44.933 l 15.5,0.603 h 0.037 l 1.358,0.057"
       class="cls-5"
       id="path15"
       style="fill:none;stroke:#231f20;stroke-width:2px;stroke-miterlimit:10" />
    <path
       d="m 180.76,364.211 28.604,-37.391 a 3.47,3.47 0 0 1 5.506,0 l 28.605,37.391 m -62.715,0 28.001,33.922 a 4.234,4.234 0 0 0 6.694,0 l 28.02,-33.922 M 220.999,92.612 c 1.376,1.433 11.935,-23.25 11.935,-23.25 0,0 -44.877,-13.84 -57.944,37.712 -13.067,51.533 56.266,44.613 62.45,34.563 l -7.636,-23.89 c 0,0 -28.208,14.82 -33.94,-6.28 -3.47,-12.727 15.707,-28.755 25.135,-18.855 z"
       class="cls-6"
       id="path16"
       style="fill:none;stroke:#231f20;stroke-width:2px;stroke-linecap:round;stroke-miterlimit:10" />
    <path
       d="m 338.527,499.275 a 11.813,11.813 0 0 0 -0.886,1.433 c -6.864,12.162 5.92,24.965 5.92,24.965 -10.05,11.314 13.822,16.33 13.822,16.33 -3.771,15.084 13.84,5.034 13.802,8.805 -0.019,3.771 6.317,18.856 22.665,15.085 16.329,-3.771 23.871,-37.712 15.085,-74.16 -8.806,-36.467 -18.856,-84.078 -17.254,-99.314 1.602,-15.236 -9.145,-77.93 -11.671,-95.542 -2.508,-17.593 5.355,-60.961 5.355,-60.961 0.17,-8.75 0.301,-13.821 0.301,-13.821 3.15,-11.314 6.015,-28.284 6.015,-28.284 l -3.94,5.015 c 3.94,-5.015 0,-11.313 0,-11.313 0,0 -7.09,3.149 -3.32,0 3.772,-3.13 5.017,-8.165 0,-7.542 -5.034,0.64 -54.681,7.542 -54.681,7.542 M 87.348,497.39 a 16.53,16.53 0 0 1 1.433,2.45 c 5.638,11.842 -6.467,23.948 -6.467,23.948 10.069,11.313 -13.821,16.329 -13.821,16.329 3.77,15.085 -13.822,5.035 -13.803,8.806 0.038,3.733 -6.222,18.63 -22.269,15.16 a 3.329,3.329 0 0 1 -0.377,-0.076 c -16.348,-3.77 -23.89,-37.711 -15.084,-74.16 8.786,-36.467 18.855,-84.078 17.253,-99.313 -1.602,-15.235 9.145,-77.931 11.653,-95.543 2.507,-17.592 -5.355,-60.96 -5.355,-60.96 -0.17,-8.75 -0.302,-13.822 -0.302,-13.822 -3.15,-11.313 -5.996,-28.284 -5.996,-28.284 l 3.94,5.016 c -3.94,-5.016 0,-11.314 0,-11.314 0,0 7.09,3.15 3.32,0 -3.772,-3.13 -5.035,-8.164 0,-7.542 4.826,0.622 50.834,7.015 54.455,7.524 a 1.037,1.037 0 0 1 0.226,0.018"
       class="cls-5"
       id="path17"
       style="fill:none;stroke:#231f20;stroke-width:2px;stroke-miterlimit:10" />
    <path
       fill="url(#linear-gradient)"
       d="m 43.509,660.134 c 0,0 6.798,42.958 100.629,57.324 93.831,14.366 191.62,-12.043 191.62,-12.043 0,0 39.747,-22.436 43.262,-33.528 l 3.516,-11.093 c 0,0 14.463,-6.92 11.314,-30.17 0,0 -51.003,32.463 -143.94,44.004 C 153.746,686.57 84.13,658.915 65.513,648.23 46.896,637.545 26.86,619.915 26.86,619.915 c 0,0 -2.127,9.596 5.336,10.05 0,0 -3.595,19.152 5.867,25.308 9.462,6.156 5.447,4.861 5.447,4.861 z"
       id="path18"
       style="fill:url(#linear-gradient)" />
    <path
       fill="url(#linear-gradient-2)"
       d="m 114.311,510.543 c -0.414,-2.5 -7.705,5.696 -7.705,5.696 l -6.266,-21.848 -12.2,5.79 c 0,0 9.46,9.773 -5.521,23.286 0,0 10.16,9.742 -13.724,16.656 0,0 6.801,9.428 -14.198,10.057 0,0 -3.453,4.841 -7.81,11.042 -6.562,4.017 -14.692,4.01 -14.692,4.01 v 17.412 c -3.245,4.996 -4.253,7.076 0,2.105 3.914,-4.574 42.985,-23.256 46.756,-32.684 3.771,-9.428 18.693,-5.657 17.203,-20.741 -1.49,-15.084 0.396,-13.828 7.31,-7.857 6.914,5.971 19.56,-0.66 19.56,-0.66 0,0 -8.3,-9.764 -8.713,-12.264 z"
       id="path19"
       style="fill:url(#linearGradient1)" />
    <path
       fill="url(#linear-gradient-3)"
       d="m 180.76,364.211 c 0,0 24.179,32.307 28.001,33.922 3.822,1.615 3.281,4.131 16.564,-11.95 l 18.15,-21.972 c 0,0 2.237,19.409 -6.034,30.722 -8.271,11.313 -17.7,27.027 -30.27,20.742 -12.57,-6.285 -32.08,-31.904 -26.41,-51.464 z"
       id="path20"
       style="fill:url(#linear-gradient-3)" />
    <path
       fill="url(#linear-gradient-4)"
       d="m 311.18,513.371 c 0.413,-2.5 7.704,5.696 7.704,5.696 l 6.267,-21.847 12.2,5.789 c 0,0 -9.46,9.773 5.52,23.287 0,0 -10.16,9.742 13.725,16.656 0,0 -6.801,9.427 14.198,10.056 0,0 3.453,4.842 7.809,11.042 6.562,4.017 14.693,4.011 14.693,4.011 v 17.411 c 3.244,4.997 4.253,7.076 0,2.105 -3.914,-4.574 -42.985,-23.256 -46.757,-32.683 -3.772,-9.427 -18.692,-5.657 -17.202,-20.742 1.49,-15.085 -0.396,-13.827 -7.31,-7.856 -6.914,5.971 -19.56,-0.66 -19.56,-0.66 0,0 8.299,-9.765 8.712,-12.265 z"
       id="path21"
       style="fill:url(#linear-gradient-4)" />
    <path
       fill="none"
       stroke="#ffffff"
       stroke-miterlimit="10"
       stroke-width="4"
       d="m 96.154,186.173 -52.136,-6.255 -5.864,5.71 c 0,0 0,11.313 2.3,15.405 2.3,4.092 9.428,92.393 9.428,92.393 L 38.154,363.4 v 34.205 c 0,0 -5.413,54.508 -11.456,65.524 -6.043,11.016 -13.738,54.51 -13.4,60.338 0.338,5.828 2.63,21.827 5.166,26.72 M 68.895,437.956 c 0,0 0.628,16.059 0,22.344 -0.628,6.285 10.813,-5.657 10.813,-5.657 0,0 -1.829,19.516 -5.42,22.627 -3.591,3.111 13.852,3.112 13.852,3.112 l 2.125,14.01 10.685,-2.665 8.003,15.084 7.081,-3.77 c 0,0 6.99,6.63 6.99,13.198 m -94.939,78.921 4.11,34.805 m 299.027,-442.339 52.136,-6.255 5.865,5.71 c 0,0 0,11.313 -2.3,15.405 -2.3,4.092 -9.429,92.393 -9.429,92.393 l 11.729,69.974 v 34.205 c 0,0 5.413,54.508 11.455,65.524 6.042,11.016 13.739,54.51 13.4,60.338 -0.339,5.828 -2.63,21.827 -5.166,26.72 M 358.481,439.41 c 0,0 -0.628,16.058 0,22.343 0.628,6.285 -10.813,-5.656 -10.813,-5.656 0,0 1.83,19.515 5.42,22.627 3.59,3.112 -13.852,3.11 -13.852,3.11 l -2.125,14.01 -10.685,-2.664 -8.003,15.084 -7.081,-3.77 c 0,0 -6.99,6.63 -6.99,13.198 m 94.94,78.921 -4.111,34.805"
       opacity="0.28"
       id="path22" />
    <path
       d="m 248.66,323.275 c -0.264,-1.867 -5.657,-16.33 6.901,-26.398 12.577,-10.05 66.938,-57.812 79.987,-45.254 13.048,12.577 7.391,30.17 -12.728,44.01 0,0 23.25,32.676 -1.263,55.303 -24.513,22.627 -66.618,17.593 -72.897,-27.661 z m 46.253,-23.871 c 0,0 -14.84,1.244 -17.97,16.329 -3.148,15.084 -3.148,27.661 12.559,32.055 15.725,4.412 26.398,-16.97 23.268,-29.529 -3.15,-12.577 -7.41,-18.856 -17.857,-18.856 z m -73.424,-68.259 -15.5,-0.603 c 0,0 -94.486,-2.395 -110.061,-44.933 a 34.926,34.926 0 0 1 -1.66,-6.355 c 0,0 0.472,-28.85 35.355,-13.765 34.883,15.085 4.714,-32.054 -6.6,-53.739 -8.748,-16.763 -10.163,-51.156 20.082,-75.423 0.019,-0.019 0.057,-0.038 0.076,-0.075 8.88,-7.109 20.515,-13.35 35.467,-18.008 a 112.306,112.306 0 0 1 38.033,-5.185 0.908,0.908 0 0 1 0.226,0 132.472,132.472 0 0 1 30.49,5.845 c 2.941,0.905 5.732,1.886 8.41,2.923 a 0.066,0.066 0 0 1 0.037,0.019 119.158,119.158 0 0 1 34.148,21.552 c 0.132,0.15 0.264,0.264 0.34,0.358 0.131,0.113 0.207,0.189 0.207,0.189 22.325,23.513 20.42,53.249 12.482,68.465 -11.313,21.685 -41.482,68.824 -6.6,53.74 34.882,-15.084 35.356,13.764 35.356,13.764 a 33.1,33.1 0 0 1 -2.15,7.543 c -15.594,38.315 -96.202,43.18 -108.1,43.688 z m 8.315,-113.399 c 0,0 -28.208,14.821 -33.94,-6.279 -3.47,-12.727 15.707,-28.755 25.134,-18.855 1.377,1.433 11.936,-23.25 11.936,-23.25 0,0 -44.877,-13.84 -57.944,37.712 -13.067,51.533 56.266,44.613 62.45,34.563 z"
       class="cls-1"
       id="path23"
       style="fill:#171717" />
    <path
       d="m 286.692,309.114 c 4.337,0 7.844,4.092 7.844,9.126 0,5.034 -3.507,9.127 -7.844,9.127 -4.318,0 -7.825,-4.092 -7.825,-9.127 0,-5.035 3.507,-9.126 7.825,-9.126 z"
       class="cls-2"
       id="path24"
       style="fill:#231f20" />
    <path
       d="m 286.692,309.114 c -4.318,0 -7.825,4.092 -7.825,9.126 0,5.034 3.507,9.127 7.825,9.127 4.337,0 7.844,-4.092 7.844,-9.127 0,-5.035 -3.507,-9.126 -7.844,-9.126 z m -9.748,6.619 c 3.13,-15.085 17.97,-16.33 17.97,-16.33 10.445,0 14.707,6.28 17.856,18.856 3.13,12.558 -7.543,33.94 -23.268,29.529 -15.707,-4.394 -15.707,-16.97 -12.558,-32.055 z m -81.08,-204.266 c 5.732,21.1 33.94,6.28 33.94,6.28 l 7.637,23.89 c -6.185,10.05 -75.518,16.97 -62.45,-34.563 13.066,-51.552 57.943,-37.712 57.943,-37.712 0,0 -10.559,24.683 -11.934,23.25 -9.428,-9.9 -28.605,6.128 -25.135,18.855 z"
       class="cls-3"
       id="path25"
       style="fill:#ffffff" />
    <path
       d="m 215.455,398.133 a 4.234,4.234 0 0 1 -6.694,0 l -28,-33.922 28.603,-37.391 a 3.47,3.47 0 0 1 5.506,0 l 28.605,37.391 z"
       class="cls-1"
       id="path26"
       style="fill:#171717" />
    <path
       d="m 127.342,298.744 c 0,0 14.84,1.244 17.988,16.329 3.148,15.085 3.149,27.661 -12.577,32.055 -15.707,4.412 -26.398,-16.97 -23.249,-29.529 3.149,-12.576 7.41,-18.855 17.838,-18.855 z m 16.065,18.837 c 0,-5.035 -3.507,-9.127 -7.844,-9.127 -4.318,0 -7.825,4.092 -7.825,9.127 0,5.035 3.507,9.126 7.825,9.126 4.337,0 7.844,-4.092 7.844,-9.126 z"
       class="cls-3"
       id="path27"
       style="fill:#ffffff" />
    <path
       d="m 135.563,308.454 c 4.337,0 7.844,4.092 7.844,9.127 0,5.035 -3.507,9.126 -7.844,9.126 -4.318,0 -7.825,-4.092 -7.825,-9.126 0,-5.034 3.507,-9.127 7.825,-9.127 z"
       class="cls-2"
       id="path28"
       style="fill:#231f20" />
    <path
       d="m 127.342,298.744 c -10.428,0 -14.69,6.279 -17.838,18.855 -3.149,12.558 7.542,33.94 23.25,29.529 15.725,-4.394 15.725,-16.97 12.576,-32.055 -3.149,-15.085 -17.988,-16.33 -17.988,-16.33 z m 46.272,23.871 c -6.28,45.254 -48.403,50.288 -72.916,27.662 -24.513,-22.626 -1.244,-55.305 -1.244,-55.305 -20.12,-13.84 -25.776,-31.432 -12.728,-44.01 13.03,-12.557 67.41,35.205 79.968,45.255 12.577,10.069 7.184,24.531 6.92,26.398 z"
       class="cls-1"
       id="path29"
       style="fill:#171717" />
    <path
       d="m 360.532,438.616 c 0,0 -5.657,8.485 0,23.57 0,0 -5.657,5.657 -10.371,0 0,0 0.943,12.256 5.185,18.856 0,0 -13.67,3.77 -17.441,0 0,0 5.656,7.542 0,19.798 a 0.97,0.97 0 0 1 -0.264,-0.132 c -0.51,-0.245 -1.961,-1.075 -6.015,-3.639 l -4.413,-2.772 a 0.985,0.985 0 0 0 -1.527,0.754 c -0.17,2.66 -1.32,8.73 -6.637,20.874 0,0 -0.32,-2.508 -6.92,-7.222 0,0 -0.623,10.05 -9.108,14.764 M 248.66,323.275 c -0.264,-1.867 -5.657,-16.33 6.901,-26.398 12.577,-10.05 66.938,-57.812 79.987,-45.254 13.048,12.577 7.391,30.17 -12.728,44.01 0,0 23.25,32.676 -1.263,55.303 -24.513,22.627 -66.618,17.593 -72.897,-27.661 z"
       class="cls-5"
       id="path30"
       style="fill:none;stroke:#231f20;stroke-width:2px;stroke-miterlimit:10" />
    <path
       d="m 294.913,299.403 c 0,0 -14.84,1.245 -17.97,16.33 -3.148,15.084 -3.148,27.661 12.559,32.055 15.725,4.412 26.398,-16.97 23.268,-29.529 -3.15,-12.577 -7.41,-18.856 -17.857,-18.856 z M 216.68,13.059 c -45.612,-2.998 -71.991,21.74 -73.5,23.193 M 255.806,21.827 a 125.025,125.025 0 0 0 -8.41,-2.923 132.472,132.472 0 0 0 -30.49,-5.845 m 73.425,30.697 a 2.019,2.019 0 0 0 -0.339,-0.358 C 281.959,35.101 270.834,27.597 255.844,21.846 m -34.318,209.299 c 11.898,-0.509 92.507,-5.374 108.1,-43.689 a 33.1,33.1 0 0 0 2.15,-7.542 c 0,0 -0.47,-28.85 -35.354,-13.765 -34.884,15.085 -4.714,-32.055 6.6,-53.739 7.938,-15.216 9.842,-44.952 -12.483,-68.465 m -70.483,187.257 1.433,-0.057 M 32.195,565.233 c 0,0 -6.6,39.597 -5.336,54.682 1.244,15.084 5.336,7.542 5.336,8.805 v 1.245 c 0,0 -5.034,18.856 11.314,30.17 0,0 -2.508,16.347 35.203,38.974 0,0 35.355,13.727 56.172,17.008 73.311,11.54 174.737,6.28 212.449,-16.348 37.712,-22.628 35.203,-38.975 35.203,-38.975 16.33,-11.313 11.314,-30.169 11.314,-30.169 v -1.244 c 0,-1.264 4.073,6.279 5.336,-8.806 1.263,-15.085 -5.336,-54.682 -5.336,-54.682 M 65.513,437.956 c 0,0 5.657,8.485 0,23.57 0,0 5.657,5.657 10.371,0 0,0 -0.943,12.256 -5.185,18.856 0,0 13.67,3.77 17.441,0 0,0 -5.656,7.542 0,19.798 a 3.41,3.41 0 0 0 0.641,-0.34 c 0.736,-0.395 2.3,-1.319 5.638,-3.43 l 4.394,-2.773 a 0.982,0.982 0 0 1 1.527,0.755 c 0.189,2.658 1.339,8.73 6.656,20.873 0,0 0.302,-2.508 6.901,-7.222 0,0 0.642,10.05 9.127,14.764 m 50.59,-200.192 c 0.264,-1.867 5.657,-16.33 -6.92,-26.398 -12.558,-10.05 -66.938,-57.812 -79.968,-45.254 -13.048,12.577 -7.391,30.17 12.728,44.01 0,0 -23.268,32.677 1.244,55.304 24.512,22.627 66.637,17.592 72.916,-27.662 z"
       class="cls-5"
       id="path31"
       style="fill:none;stroke:#231f20;stroke-width:2px;stroke-miterlimit:10" />
    <path
       d="m 127.342,298.744 c 0,0 14.84,1.244 17.988,16.329 3.148,15.085 3.149,27.661 -12.577,32.055 -15.707,4.412 -26.398,-16.97 -23.249,-29.529 3.149,-12.576 7.41,-18.855 17.838,-18.855 z M 290.539,43.945 c 0,0 -0.076,-0.076 -0.208,-0.189 -0.075,-0.094 -0.207,-0.207 -0.339,-0.358 a 119.158,119.158 0 0 0 -34.148,-21.552 0.066,0.066 0 0 0 -0.038,-0.02 112.207,112.207 0 0 0 -38.9,-8.767 0.908,0.908 0 0 0 -0.225,0 112.306,112.306 0 0 0 -38.033,5.185 c -14.952,4.658 -26.586,10.899 -35.467,18.008 -0.02,0.037 -0.057,0.056 -0.076,0.075 -30.245,24.267 -28.83,58.66 -20.081,75.423 11.313,21.684 41.482,68.824 6.6,53.74 -34.882,-15.084 -35.355,13.764 -35.355,13.764 a 34.926,34.926 0 0 0 1.659,6.355 c 15.575,42.538 110.061,44.933 110.061,44.933 l 15.5,0.603 h 0.037 l 1.358,0.057"
       class="cls-5"
       id="path32"
       style="fill:none;stroke:#231f20;stroke-width:2px;stroke-miterlimit:10" />
    <path
       d="m 180.76,364.211 28.604,-37.391 a 3.47,3.47 0 0 1 5.506,0 l 28.605,37.391 m -62.715,0 28.001,33.922 a 4.234,4.234 0 0 0 6.694,0 l 28.02,-33.922 M 220.999,92.612 c 1.376,1.433 11.935,-23.25 11.935,-23.25 0,0 -44.877,-13.84 -57.944,37.712 -13.067,51.533 56.266,44.613 62.45,34.563 l -7.636,-23.89 c 0,0 -28.208,14.82 -33.94,-6.28 -3.47,-12.727 15.707,-28.755 25.135,-18.855 z"
       class="cls-6"
       id="path33"
       style="fill:none;stroke:#231f20;stroke-width:2px;stroke-linecap:round;stroke-miterlimit:10" />
    <path
       d="m 338.527,499.275 a 11.813,11.813 0 0 0 -0.886,1.433 c -6.864,12.162 5.92,24.965 5.92,24.965 -10.05,11.314 13.822,16.33 13.822,16.33 -3.771,15.084 13.84,5.034 13.802,8.805 -0.019,3.771 6.317,18.856 22.665,15.085 16.329,-3.771 23.871,-37.712 15.085,-74.16 -8.806,-36.467 -18.856,-84.078 -17.254,-99.314 1.602,-15.236 -9.145,-77.93 -11.671,-95.542 -2.508,-17.593 5.355,-60.961 5.355,-60.961 0.17,-8.75 0.301,-13.821 0.301,-13.821 3.15,-11.314 6.015,-28.284 6.015,-28.284 l -3.94,5.015 c 3.94,-5.015 0,-11.313 0,-11.313 0,0 -7.09,3.149 -3.32,0 3.772,-3.13 5.017,-8.165 0,-7.542 -5.034,0.64 -54.681,7.542 -54.681,7.542 M 87.348,497.39 a 16.53,16.53 0 0 1 1.433,2.45 c 5.638,11.842 -6.467,23.948 -6.467,23.948 10.069,11.313 -13.821,16.329 -13.821,16.329 3.77,15.085 -13.822,5.035 -13.803,8.806 0.038,3.733 -6.222,18.63 -22.269,15.16 a 3.329,3.329 0 0 1 -0.377,-0.076 c -16.348,-3.77 -23.89,-37.711 -15.084,-74.16 8.786,-36.467 18.855,-84.078 17.253,-99.313 -1.602,-15.235 9.145,-77.931 11.653,-95.543 2.507,-17.592 -5.355,-60.96 -5.355,-60.96 -0.17,-8.75 -0.302,-13.822 -0.302,-13.822 -3.15,-11.313 -5.996,-28.284 -5.996,-28.284 l 3.94,5.016 c -3.94,-5.016 0,-11.314 0,-11.314 0,0 7.09,3.15 3.32,0 -3.772,-3.13 -5.035,-8.164 0,-7.542 4.826,0.622 50.834,7.015 54.455,7.524 a 1.037,1.037 0 0 1 0.226,0.018"
       class="cls-5"
       id="path34"
       style="fill:none;stroke:#231f20;stroke-width:2px;stroke-miterlimit:10" />
  </g>
  <text
     xml:space="preserve"
     style="font-size:7.61702px;font-family:Palatino;-inkscape-font-specification:Palatino;fill:#666666;stroke:#999999;stroke-width:0.0791271"
     x="2.8370774"
     y="20.846741"
     id="text1"
     transform="scale(0.65895626,1.5175514)"><tspan
       sodipodi:role="line"
       id="tspan1"
       style="fill:#666666;stroke:#999999;stroke-width:0.0791271"
       x="2.8370774"
       y="20.846741">κυβερναύτ.ευ</tspan></text>
</svg>
