<?xml version="1.0" encoding="UTF-8" standalone="no"?>
<svg
   role="img"
   viewBox="18.01 19.26 350.74 350.74"
   version="1.1"
   id="svg2"
   sodipodi:docname="favicon.svg"
   inkscape:version="1.3 (0e150ed, 2023-07-21)"
   inkscape:export-filename="icon-512.png"
   inkscape:export-xdpi="140.138"
   inkscape:export-ydpi="140.138"
   xmlns:inkscape="http://www.inkscape.org/namespaces/inkscape"
   xmlns:sodipodi="http://sodipodi.sourceforge.net/DTD/sodipodi-0.dtd"
   xmlns:xlink="http://www.w3.org/1999/xlink"
   xmlns="http://www.w3.org/2000/svg"
   xmlns:svg="http://www.w3.org/2000/svg">
  <defs
     id="defs2">
    <linearGradient
       id="linear-gradient"
       x1="210.438"
       x2="210.438"
       y1="619.91498"
       y2="721.73798"
       gradientUnits="userSpaceOnUse"
       gradientTransform="matrix(0.45721314,0,0,0.45721314,94.717258,34.19298)">
      <stop
         offset=".524"
         stop-color="#f9ba16"
         id="stop1" />
      <stop
         offset="1"
         stop-color="#c49511"
         id="stop2" />
    </linearGradient>
    <linearGradient
       inkscape:collect="always"
       xlink:href="#linear-gradient-2"
       id="linearGradient35"
       gradientUnits="userSpaceOnUse"
       x1="104.782"
       y1="496.95599"
       x2="46.691002"
       y2="597.57202"
       gradientTransform="matrix(0.45721314,0,0,0.45721314,94.717258,34.19298)" />
    <linearGradient
       id="linear-gradient-2"
       x1="104.782"
       x2="46.691002"
       y1="496.95599"
       y2="597.57202"
       gradientUnits="userSpaceOnUse">
      <stop
         offset=".283"
         stop-color="#f9ba16"
         id="stop3" />
      <stop
         offset="1"
         stop-color="#c49511"
         id="stop4" />
    </linearGradient>
    <linearGradient
       id="linear-gradient-3"
       x1="211.75101"
       x2="211.75101"
       y1="417.11099"
       y2="364.211"
       gradientUnits="userSpaceOnUse"
       gradientTransform="matrix(0.45721314,0,0,0.45721314,94.717258,34.19298)">
      <stop
         offset=".005"
         stop-color="#f9ba16"
         id="stop5" />
      <stop
         offset="1"
         stop-color="#c49511"
         id="stop6" />
    </linearGradient>
    <linearGradient
       id="linear-gradient-4"
       x1="199.703"
       x2="141.612"
       y1="499.784"
       y2="600.401"
       gradientTransform="matrix(-0.45721314,0,0,0.45721314,332.65646,34.19298)"
       xlink:href="#linear-gradient-2" />
  </defs>
  <sodipodi:namedview
     id="namedview2"
     pagecolor="#ffffff"
     bordercolor="#000000"
     borderopacity="0.25"
     inkscape:showpageshadow="2"
     inkscape:pageopacity="0.0"
     inkscape:pagecheckerboard="0"
     inkscape:deskcolor="#d1d1d1"
     inkscape:zoom="1.0074671"
     inkscape:cx="180.15477"
     inkscape:cy="175.68813"
     inkscape:window-width="1312"
     inkscape:window-height="449"
     inkscape:window-x="-27"
     inkscape:window-y="198"
     inkscape:window-maximized="0"
     inkscape:current-layer="svg2" />
  <style
     id="style1">svg {enable-background:new 0 0 389 389}</style>
  <circle
     style="fill:#000080;stroke:#f9ba16;stroke-width:0.457931;fill-opacity:1"
     id="path35"
     cx="192.09096"
     cy="196.26001"
     r="174.77104" />
  <path
     d="m 237.71981,179.70563 c -1.44022,-5.75083 -3.38795,-8.62167 -8.16445,-8.62167 0,0 -6.78505,0.56923 -8.21612,7.46629 -1.43931,6.89661 -1.43931,12.64698 5.74214,14.65597 7.18967,2.01722 12.06951,-7.75891 10.63843,-13.50105 z m -29.31193,2.29292 c -0.12071,-0.85361 -2.58646,-7.46629 3.15522,-12.06951 5.75037,-4.59499 30.60494,-26.4324 36.57111,-20.69072 5.96572,5.75037 3.37926,13.79412 -5.81941,20.12195 0,0 10.63021,14.9399 -0.57746,25.28526 -11.20766,10.34536 -30.45862,8.04375 -33.32946,-12.64698 z M 199.78667,88.028 c 0,0 -12.89707,6.77635 -15.51782,-2.87085 -1.58653,-5.81895 7.18145,-13.14716 11.4916,-8.62075 0.62958,0.65519 5.45729,-10.6302 5.45729,-10.6302 0,0 -20.51835,-6.32783 -26.49276,17.24242 -5.9744,23.56156 25.72556,20.39765 28.55297,15.80265 z m 45.64038,31.87232 c -7.12978,17.51812 -43.98527,19.74247 -49.42474,19.97565 h -0.0174 l -7.0868,-0.27616 c 0,0 -43.20025,-1.09503 -50.32134,-20.54396 a 15.968626,15.968626 0 0 1 -0.75897,-2.90559 c 0,0 0.2158,-13.1906 16.16477,-6.29354 15.94896,6.89706 2.1553,-14.65551 -3.01761,-24.57017 -3.9997,-7.66381 -4.64666,-23.3892 9.18175,-34.48439 0.009,-0.009 0.0261,-0.0174 0.0347,-0.0343 4.06005,-3.25033 9.37973,-6.1038 16.21598,-8.23349 a 51.347779,51.347779 0 0 1 17.38919,-2.37065 0.41514953,0.41514953 0 0 1 0.10333,0 60.567939,60.567939 0 0 1 13.94043,2.67241 c 1.34466,0.41377 2.62074,0.8623 3.84516,1.33643 a 0.03017607,0.03017607 0 0 1 0.0169,0.009 54.480603,54.480603 0 0 1 15.61291,9.85385 c 0.0604,0.0686 0.1207,0.12071 0.15545,0.16369 0.0599,0.0517 0.0947,0.0864 0.0947,0.0864 10.20728,10.75045 9.33629,24.34614 5.70693,31.3031 -5.17245,9.91466 -18.96611,31.46723 -3.01761,24.57063 15.94851,-6.8966 16.16523,6.29308 16.16523,6.29308 a 15.133755,15.133755 0 0 1 -0.98301,3.4483 z"
     class="cls-1"
     id="path6"
     style="fill:#171717;stroke-width:0.457213" />
  <path
     d="m 225.79661,175.52396 c 1.98293,0 3.58638,1.87092 3.58638,4.17253 0,2.30161 -1.60345,4.17298 -3.58638,4.17298 -1.97425,0 -3.5777,-1.87092 -3.5777,-4.17298 0,-2.30207 1.60345,-4.17253 3.5777,-4.17253 z"
     class="cls-2"
     id="path7"
     style="fill:#231f20;stroke-width:0.457213" />
  <path
     d="m 222.21891,179.69649 c 0,2.30206 1.60345,4.17298 3.5777,4.17298 1.98293,0 3.58638,-1.87092 3.58638,-4.17298 0,-2.30207 -1.60345,-4.17253 -3.58638,-4.17253 -1.97425,0 -3.5777,1.87092 -3.5777,4.17253 z m 7.33645,-8.61253 c 4.77604,0 6.72469,2.8713 8.16445,8.62121 1.43108,5.74169 -3.44876,15.51782 -10.63843,13.50105 -7.18145,-2.00899 -7.18145,-7.75891 -5.74169,-14.65597 1.43108,-6.89706 8.21612,-7.46629 8.21612,-7.46629 z M 184.26885,85.15715 c 2.62075,9.6472 15.51782,2.8713 15.51782,2.8713 l 3.49173,10.92282 c -2.82786,4.595 -34.52782,7.75891 -28.55296,-15.80265 5.97395,-23.57025 26.4923,-17.24242 26.4923,-17.24242 0,0 -4.82771,11.28539 -5.45638,10.6302 -4.3106,-4.52641 -13.07858,2.8018 -11.49205,8.62075 z"
     class="cls-3"
     id="path8"
     style="fill:#ffffff;stroke-width:0.457213" />
  <path
     d="m 206.03723,200.71503 -12.81112,15.50959 a 1.9358404,1.9358404 0 0 1 -3.06058,0 l -12.80197,-15.50959 13.07767,-17.09565 a 1.5865296,1.5865296 0 0 1 2.51742,0 z"
     class="cls-1"
     id="path9"
     style="fill:#171717;stroke-width:0.457213" />
  <path
     fill="#f9ba16"
     d="m 140.75771,194.34422 c 11.20766,10.34537 30.46731,8.0433 33.33815,-12.64743 0.1207,-0.85361 2.58645,-7.46629 -3.16392,-12.06951 -5.74168,-4.59499 -30.60493,-26.4324 -36.56242,-20.69072 -5.96571,5.75037 -3.37926,13.79412 5.81941,20.12195 0,0 -10.63843,14.94035 0.56878,25.28571 z m 49.40782,21.8804 a 1.9358404,1.9358404 0 0 0 3.06058,0 l 12.81112,-15.50959 -13.07858,-17.09565 a 1.5865296,1.5865296 0 0 0 -2.51742,0 l -13.07813,17.09519 z m 21.39757,-46.29558 c -5.74168,4.60368 -3.27593,11.2159 -3.15522,12.06951 2.87084,20.69073 22.1218,22.99234 33.32946,12.64698 11.20767,-10.34536 0.57746,-25.28572 0.57746,-25.28572 9.19913,-6.32783 11.78513,-14.37112 5.81941,-20.12195 -5.96617,-5.74122 -30.82074,16.09619 -36.57111,20.69118 z m -102.02254,122.1701 a 1.5220625,1.5220625 0 0 1 -0.17236,-0.0347 c -7.47452,-1.72369 -10.922822,-17.24197 -6.8966,-33.90693 4.01707,-16.67319 8.62075,-38.44156 7.88829,-45.40721 -0.73245,-6.96564 4.18121,-35.63107 5.32791,-43.68351 1.14623,-8.0433 -2.44838,-27.87171 -2.44838,-27.87171 -0.0777,-4.00062 -0.13808,-6.3196 -0.13808,-6.3196 -1.44022,-5.17246 -2.74145,-12.93182 -2.74145,-12.93182 l 1.80142,2.29338 c -1.80142,-2.29338 0,-5.17291 0,-5.17291 0,0 3.24164,1.44022 1.51795,0 -1.72461,-1.43108 -2.30207,-3.73269 0,-3.4483 2.20651,0.28439 23.24197,3.20689 24.89754,3.44007 7.12109,19.44893 50.32134,20.54396 50.32134,20.54396 l 7.0868,0.2757 h 0.0169 c 5.43992,-0.23272 42.29541,-2.45707 49.42474,-19.97519 l 0.0521,0.0261 c 0,0 22.69926,-3.15522 25.00133,-3.4483 2.29338,-0.28484 1.72415,2.01723 0,3.4483 -1.72415,1.43977 1.51749,0 1.51749,0 0,0 1.80142,2.87953 0,5.17291 l 1.80142,-2.29338 c 0,0 -1.31038,7.75891 -2.75014,12.93182 0,0 -0.0604,2.31898 -0.13762,6.31868 0,0 -3.59507,19.82934 -2.44838,27.87263 1.15492,8.05198 6.06905,36.71742 5.33614,43.68306 -0.73292,6.96564 3.86253,28.73447 7.88875,45.40767 4.01708,16.6645 0.56878,32.18277 -6.89706,33.90692 0,0 3.01761,18.10427 2.43969,25.00133 -0.57792,6.89706 -2.43969,3.4483 -2.43969,4.02576 v 0.56923 c 0,0 2.29338,8.62121 -5.17291,13.79412 0,0 1.14669,7.47407 -16.09527,17.81943 -17.24197,10.34536 -63.61572,12.75076 -97.13448,7.47452 -9.5178,-1.49966 -25.68257,-7.77628 -25.68257,-7.77628 -17.24197,-10.34536 -16.09528,-17.81988 -16.09528,-17.81988 -7.47452,-5.17246 -5.17291,-13.79412 -5.17291,-13.79412 v -0.56878 c 0,-0.57746 -1.87091,2.8713 -2.43968,-4.02576 -0.57746,-6.89706 2.43968,-25.00133 2.43968,-25.00133 z"
     id="path10"
     style="stroke-width:0.457213" />
  <path
     d="m 156.69844,175.2222 c 1.98294,0 3.58638,1.87092 3.58638,4.17298 0,2.30207 -1.60344,4.17253 -3.58638,4.17253 -1.97424,0 -3.57769,-1.87092 -3.57769,-4.17253 0,-2.30161 1.60345,-4.17298 3.57769,-4.17298 z"
     class="cls-2"
     id="path11"
     style="fill:#231f20;stroke-width:0.457213" />
  <path
     d="m 174.09586,181.69679 c -2.8713,20.69073 -22.13049,22.99234 -33.33815,12.64743 -11.20767,-10.3449 -0.56878,-25.28617 -0.56878,-25.28617 -9.19913,-6.32783 -11.78512,-14.37112 -5.81941,-20.12195 5.95749,-5.74122 30.82074,16.09619 36.56242,20.69118 5.75037,4.60368 3.28462,11.2159 3.16392,12.06951 z m -21.15617,-10.91413 c -4.76782,0 -6.71646,2.87084 -8.15576,8.62075 -1.43977,5.74169 3.4483,15.51782 10.6302,13.50105 7.18968,-2.00899 7.18968,-7.75891 5.74991,-14.65597 -1.43976,-6.89706 -8.22435,-7.46629 -8.22435,-7.46629 z"
     class="cls-1"
     id="path12"
     style="fill:#171717;stroke-width:0.457213" />
  <path
     d="m 259.55723,234.73398 c 0,0 -2.58646,3.87945 0,10.77651 0,0 -2.58646,2.58645 -4.74176,0 0,0 0.43115,5.6036 2.37065,8.62121 0,0 -6.25011,1.72369 -7.97426,0 0,0 2.586,3.4483 0,9.05191 a 0.44349675,0.44349675 0 0 1 -0.1207,-0.0604 c -0.23318,-0.11201 -0.8966,-0.4915 -2.75014,-1.66379 l -2.01768,-1.2674 a 0.45035494,0.45035494 0 0 0 -0.69816,0.34474 c -0.0777,1.21619 -0.60352,3.99147 -3.03453,9.54387 0,0 -0.14631,-1.14669 -3.16391,-3.302 0,0 -0.28485,4.595 -4.1643,6.7503 m -24.85456,-91.53038 c -0.12071,-0.85361 -2.58646,-7.46629 3.15522,-12.06951 5.75037,-4.59499 30.60494,-26.4324 36.57111,-20.69072 5.96572,5.75037 3.37926,13.79412 -5.81941,20.12195 0,0 10.63021,14.9399 -0.57746,25.28526 -11.20766,10.34536 -30.45862,8.04375 -33.32946,-12.64698 z"
     class="cls-5"
     id="path13"
     style="fill:none;stroke:#231f20;stroke-width:0.914426px;stroke-miterlimit:10" />
  <path
     d="m 229.55536,171.08396 c 0,0 -6.78505,0.56923 -8.21612,7.46629 -1.43931,6.89661 -1.43931,12.64698 5.74214,14.65597 7.18967,2.01722 12.06951,-7.75891 10.63843,-13.50105 -1.44022,-5.75037 -3.38795,-8.62121 -8.16445,-8.62121 z M 193.7862,40.16373 C 172.9318,38.793 160.87097,50.10354 160.18103,50.76787 m 51.49409,-6.5953 a 57.163073,57.163073 0 0 0 -3.84516,-1.33643 60.567939,60.567939 0 0 0 -13.94043,-2.67241 m 33.57088,14.03507 a 0.92311333,0.92311333 0 0 0 -0.155,-0.16369 c -3.67279,-3.79349 -8.75929,-7.22442 -15.61291,-9.85385 m -15.69064,95.69425 c 5.43992,-0.23272 42.29541,-2.45707 49.42474,-19.97519 a 15.133755,15.133755 0 0 0 0.983,-3.4483 c 0,0 -0.21489,-13.1906 -16.16431,-6.29354 -15.94942,6.89706 -2.1553,-14.65596 3.01761,-24.57017 3.62936,-6.95696 4.49989,-20.55265 -5.70739,-31.3031 m -32.22576,85.61636 0.65519,-0.0261 m -86.54771,152.74942 c 0,0 -3.0176,18.10427 -2.43968,25.00133 0.56877,6.8966 2.43968,3.4483 2.43968,4.02576 v 0.56923 c 0,0 -2.30161,8.62121 5.17291,13.79412 0,0 -1.14669,7.47407 16.09528,17.81943 0,0 16.16477,6.27616 25.68257,7.77628 33.51876,5.27624 79.89206,2.8713 97.13448,-7.47452 17.24242,-10.34582 16.09527,-17.81988 16.09527,-17.81988 7.46629,-5.17246 5.17291,-13.79367 5.17291,-13.79367 v -0.56877 c 0,-0.57792 1.86223,2.87084 2.43969,-4.02622 0.57746,-6.89706 -2.43969,-25.00133 -2.43969,-25.00133 M 124.67066,234.43222 c 0,0 2.58646,3.87945 0,10.77651 0,0 2.58646,2.58645 4.74176,0 0,0 -0.43115,5.6036 -2.37065,8.62121 0,0 6.2501,1.72369 7.97425,0 0,0 -2.58599,3.4483 0,9.05191 a 1.5590968,1.5590968 0 0 0 0.29308,-0.15546 c 0.33651,-0.1806 1.05159,-0.60306 2.57777,-1.56824 l 2.00899,-1.26785 a 0.4489833,0.4489833 0 0 1 0.69816,0.3452 c 0.0864,1.21527 0.61221,3.99147 3.04321,9.54341 0,0 0.13808,-1.14669 3.15523,-3.302 0,0 0.29353,4.59499 4.17299,6.7503 m 23.13041,-91.53042 c 0.1207,-0.85361 2.58645,-7.46629 -3.16392,-12.06951 -5.74168,-4.59499 -30.60493,-26.4324 -36.56242,-20.69072 -5.96571,5.75037 -3.37926,13.79412 5.81941,20.12195 0,0 -10.63843,14.94035 0.56878,25.28571 11.2072,10.34537 30.46731,8.0433 33.33815,-12.64743 z"
     class="cls-5"
     id="path14"
     style="fill:none;stroke:#231f20;stroke-width:0.914426px;stroke-miterlimit:10" />
  <path
     d="m 152.93969,170.78266 c 0,0 6.78505,0.56877 8.22435,7.46583 1.43931,6.89706 1.43977,12.64698 -5.75037,14.65597 -7.18144,2.01722 -12.06951,-7.75891 -10.62974,-13.50105 1.43976,-5.74991 3.38794,-8.62075 8.15576,-8.62075 z M 227.55551,54.28521 c 0,0 -0.0348,-0.0348 -0.0951,-0.0864 -0.0343,-0.043 -0.0947,-0.0947 -0.155,-0.16369 a 54.480603,54.480603 0 0 0 -15.61291,-9.85385 0.03017607,0.03017607 0 0 0 -0.0174,-0.009 51.302515,51.302515 0 0 0 -17.78559,-4.00838 0.41514953,0.41514953 0 0 0 -0.10287,0 51.347779,51.347779 0 0 0 -17.38919,2.37065 c -6.83625,2.12969 -12.15547,4.98316 -16.21598,8.23349 -0.009,0.0169 -0.0261,0.0256 -0.0347,0.0343 -13.82841,11.09519 -13.18145,26.82012 -9.18129,34.48439 5.17245,9.91421 18.96611,31.46723 3.0176,24.57063 -15.94851,-6.8966 -16.16477,6.29308 -16.16477,6.29308 a 15.968626,15.968626 0 0 0 0.75852,2.90559 c 7.12109,19.44893 50.32134,20.54396 50.32134,20.54396 l 7.0868,0.2757 h 0.0169 l 0.62089,0.0261"
     class="cls-5"
     id="path15"
     style="fill:none;stroke:#231f20;stroke-width:0.914426px;stroke-miterlimit:10" />
  <path
     d="m 177.3631,200.71503 13.07813,-17.09565 a 1.5865296,1.5865296 0 0 1 2.51742,0 l 13.07858,17.09565 m -28.67413,0 12.80243,15.50959 a 1.9358404,1.9358404 0 0 0 3.06058,0 l 12.81112,-15.50959 M 195.7609,76.5364 c 0.62913,0.65519 5.45684,-10.6302 5.45684,-10.6302 0,0 -20.51835,-6.32783 -26.49276,17.24242 -5.9744,23.56156 25.72556,20.39765 28.55297,15.80265 l -3.49128,-10.92282 c 0,0 -12.89707,6.7759 -15.51782,-2.8713 -1.58653,-5.81895 7.18145,-13.14716 11.49205,-8.62075 z"
     class="cls-6"
     id="path16"
     style="fill:none;stroke:#231f20;stroke-width:0.914426px;stroke-linecap:round;stroke-miterlimit:10" />
  <path
     d="m 249.49625,262.46807 a 5.4010588,5.4010588 0 0 0 -0.40509,0.65518 c -3.13831,5.56063 2.7067,11.41433 2.7067,11.41433 -4.59499,5.17291 6.3196,7.46629 6.3196,7.46629 -1.72415,6.8966 6.32783,2.30161 6.31046,4.02576 -0.009,1.72415 2.88821,8.62121 10.36273,6.89706 7.46584,-1.72415 10.91414,-17.24242 6.89706,-33.90692 -4.02622,-16.6732 -8.62121,-38.44157 -7.88875,-45.40767 0.73245,-6.9661 -4.18122,-35.63062 -5.33614,-43.68306 -1.14669,-8.04375 2.44838,-27.87217 2.44838,-27.87217 0.0777,-4.00061 0.13762,-6.31914 0.13762,-6.31914 1.44022,-5.17291 2.75014,-12.93182 2.75014,-12.93182 l -1.80142,2.29293 c 1.80142,-2.29293 0,-5.17246 0,-5.17246 0,0 -3.24164,1.43977 -1.51795,0 1.72461,-1.43107 2.29384,-3.73314 0,-3.4483 -2.30161,0.29262 -25.00087,3.4483 -25.00087,3.4483 M 134.65391,261.60622 a 7.5577332,7.5577332 0 0 1 0.65519,1.12017 c 2.57777,5.41432 -2.9568,10.94934 -2.9568,10.94934 4.60368,5.17246 -6.31914,7.46584 -6.31914,7.46584 1.72369,6.89706 -6.3196,2.30206 -6.31092,4.02622 0.0174,1.70677 -2.84478,8.51788 -10.18168,6.93135 a 1.5220625,1.5220625 0 0 1 -0.17236,-0.0347 c -7.47452,-1.72369 -10.922822,-17.24197 -6.8966,-33.90693 4.01707,-16.67319 8.62075,-38.44156 7.88829,-45.40721 -0.73245,-6.96564 4.18121,-35.63107 5.32791,-43.68351 1.14623,-8.0433 -2.44838,-27.87171 -2.44838,-27.87171 -0.0777,-4.00062 -0.13808,-6.3196 -0.13808,-6.3196 -1.44022,-5.17246 -2.74145,-12.93182 -2.74145,-12.93182 l 1.80142,2.29338 c -1.80142,-2.29338 0,-5.17291 0,-5.17291 0,0 3.24164,1.44022 1.51795,0 -1.72461,-1.43108 -2.30207,-3.73269 0,-3.4483 2.20651,0.28439 23.24197,3.20735 24.89754,3.44007 a 0.47413003,0.47413003 0 0 1 0.10333,0.008"
     class="cls-5"
     id="path17"
     style="fill:none;stroke:#231f20;stroke-width:0.914426px;stroke-miterlimit:10" />
  <path
     fill="url(#linear-gradient)"
     d="m 114.61014,336.01492 c 0,0 3.10814,19.64096 46.00891,26.20928 42.90076,6.56833 87.61118,-5.50622 87.61118,-5.50622 0,0 18.17285,-10.25803 19.77995,-15.32944 l 1.60756,-5.07186 c 0,0 6.61268,-3.16392 5.17291,-13.79412 0,0 -23.31924,14.84251 -65.81126,20.1192 -43.96744,5.46004 -75.79679,-7.18419 -84.30873,-12.06951 -8.51194,-4.88532 -17.67266,-12.94599 -17.67266,-12.94599 0,0 -0.97249,4.38742 2.43969,4.59499 0,0 -1.64368,8.75655 2.68247,11.57115 4.32615,2.81461 2.49044,2.22252 2.49044,2.22252 z"
     id="path18"
     style="fill:url(#linear-gradient);stroke-width:0.457213" />
  <path
     fill="url(#linear-gradient-2)"
     d="m 146.98175,267.61995 c -0.18929,-1.14304 -3.52283,2.60428 -3.52283,2.60428 l -2.8649,-9.98919 -5.578,2.64726 c 0,0 4.32524,4.46835 -2.52427,10.64667 0,0 4.64529,4.45417 -6.27479,7.61534 0,0 3.1095,4.31061 -6.49152,4.59819 0,0 -1.57875,2.21337 -3.57083,5.04855 -3.00023,1.83663 -6.71738,1.83342 -6.71738,1.83342 v 7.961 c -1.48365,2.28424 -1.94452,3.23524 0,0.96243 1.78954,-2.09129 19.65331,-10.63295 21.37746,-14.94355 1.72415,-4.31061 8.54669,-2.58646 7.86544,-9.48306 -0.68125,-6.8966 0.18106,-6.32234 3.34223,-3.59232 3.16117,2.73002 8.94309,-0.30176 8.94309,-0.30176 0,0 -3.79487,-4.46423 -3.9837,-5.60726 z"
     id="path19"
     style="fill:url(#linearGradient35);stroke-width:0.457213" />
  <path
     fill="url(#linear-gradient-3)"
     d="m 177.3631,200.71503 c 0,0 11.05496,14.77119 12.80243,15.50959 1.74747,0.7384 1.50012,1.88874 7.57328,-5.4637 l 8.29842,-10.04589 c 0,0 1.02278,8.87405 -2.75883,14.0465 -3.78161,5.17246 -8.09267,12.3571 -13.83984,9.48352 -5.74717,-2.87359 -14.6674,-14.58693 -12.075,-23.53002 z"
     id="path20"
     style="fill:url(#linear-gradient-3);stroke-width:0.457213" />
  <path
     fill="url(#linear-gradient-4)"
     d="m 236.99284,268.91294 c 0.18883,-1.14303 3.52237,2.60429 3.52237,2.60429 l 2.86536,-9.98874 5.578,2.64681 c 0,0 -4.32524,4.46835 2.52381,10.64712 0,0 -4.64528,4.45417 6.27525,7.61535 0,0 -3.1095,4.31014 6.49152,4.59773 0,0 1.57875,2.21383 3.57037,5.04855 3.00024,1.83662 6.71784,1.83388 6.71784,1.83388 v 7.96054 c 1.4832,2.28469 1.94452,3.23524 0,0.96243 -1.78954,-2.09129 -19.65331,-10.63295 -21.37792,-14.94309 -1.72461,-4.31015 -8.54623,-2.58646 -7.86498,-9.48352 0.68125,-6.89706 -0.18105,-6.32189 -3.34223,-3.59187 -3.16117,2.73002 -8.94309,-0.30176 -8.94309,-0.30176 0,0 3.79442,-4.46468 3.98325,-5.60772 z"
     id="path21"
     style="fill:url(#linear-gradient-4);stroke-width:0.457213" />
  <path
     fill="none"
     stroke="#ffffff"
     stroke-miterlimit="10"
     stroke-width="1.82885"
     d="m 138.68013,119.31372 -23.83726,-2.85987 -2.6811,2.61069 c 0,0 0,5.17245 1.05159,7.04337 1.05159,1.87091 4.3106,42.24329 4.3106,42.24329 l -5.36219,31.99303 v 15.63898 c 0,0 -2.4749,24.92177 -5.23784,29.95843 -2.76294,5.03666 -6.28118,24.92269 -6.12664,27.58733 0.15454,2.66464 1.20247,9.97959 2.36195,12.21673 m 23.05772,-51.31348 c 0,0 0.28713,7.34238 0,10.21597 -0.28713,2.87358 4.94384,-2.58646 4.94384,-2.58646 0,0 -0.83624,8.92297 -2.47809,10.34536 -1.64186,1.42239 6.33331,1.42285 6.33331,1.42285 l 0.97158,6.40556 4.88532,-1.21848 3.65908,6.89661 3.23753,-1.7237 c 0,0 3.19592,3.03133 3.19592,6.0343 m -43.40736,36.08372 1.87914,15.9133 m 136.71908,-202.2432 23.83726,-2.85987 2.68156,2.61069 c 0,0 0,5.17245 -1.05159,7.04337 -1.05159,1.87091 -4.31107,42.24329 -4.31107,42.24329 l 5.36266,31.99303 v 15.63898 c 0,0 2.47489,24.92177 5.23737,29.95843 2.76249,5.03666 6.28166,24.92269 6.12666,27.58733 -0.15499,2.66464 -1.20247,9.97959 -2.36196,12.21673 M 258.61948,235.097 c 0,0 -0.28713,7.34193 0,10.21552 0.28713,2.87358 -4.94384,-2.586 -4.94384,-2.586 0,0 0.8367,8.92251 2.47809,10.34536 1.6414,1.42285 -6.33332,1.42193 -6.33332,1.42193 l -0.97157,6.40556 -4.88533,-1.21802 -3.65907,6.89661 -3.23753,-1.7237 c 0,0 -3.19592,3.03133 -3.19592,6.0343 m 43.40782,36.08372 -1.87961,15.9133"
     opacity="0.28"
     id="path22" />
  <path
     d="m 208.40788,181.99855 c -0.12071,-0.85361 -2.58646,-7.46629 3.15522,-12.06951 5.75037,-4.59499 30.60494,-26.4324 36.57111,-20.69072 5.96572,5.75037 3.37926,13.79412 -5.81941,20.12195 0,0 10.63021,14.9399 -0.57746,25.28526 -11.20766,10.34536 -30.45862,8.04375 -33.32946,-12.64698 z m 21.14748,-10.91413 c 0,0 -6.78505,0.56877 -8.21612,7.46583 -1.43931,6.89661 -1.43931,12.64698 5.74214,14.65597 7.18967,2.01722 12.06951,-7.75891 10.63843,-13.50105 -1.44022,-5.75037 -3.38795,-8.62121 -8.16445,-8.62121 z m -33.57042,-31.20891 -7.0868,-0.2757 c 0,0 -43.20025,-1.09503 -50.32134,-20.54396 a 15.968626,15.968626 0 0 1 -0.75897,-2.90559 c 0,0 0.2158,-13.1906 16.16477,-6.29354 15.94896,6.89706 2.1553,-14.65551 -3.01761,-24.57017 -3.9997,-7.66427 -4.64666,-23.3892 9.18175,-34.48439 0.009,-0.009 0.0261,-0.0174 0.0347,-0.0343 4.06005,-3.25033 9.37973,-6.1038 16.21598,-8.23349 a 51.347779,51.347779 0 0 1 17.38919,-2.37065 0.41514953,0.41514953 0 0 1 0.10333,0 60.567939,60.567939 0 0 1 13.94043,2.67241 c 1.34466,0.41377 2.62074,0.8623 3.84516,1.33643 a 0.03017607,0.03017607 0 0 1 0.0169,0.009 54.480603,54.480603 0 0 1 15.61291,9.85385 c 0.0604,0.0686 0.1207,0.12071 0.15545,0.16369 0.0599,0.0517 0.0947,0.0864 0.0947,0.0864 10.20728,10.75045 9.33629,24.34614 5.70693,31.3031 -5.17245,9.91466 -18.96611,31.46723 -3.01761,24.57063 15.94851,-6.8966 16.16523,6.29308 16.16523,6.29308 a 15.133755,15.133755 0 0 1 -0.98301,3.44876 c -7.12978,17.51812 -43.98482,19.74246 -49.42474,19.97473 z M 199.78667,88.028 c 0,0 -12.89707,6.77635 -15.51782,-2.87085 -1.58653,-5.81895 7.18145,-13.14716 11.4916,-8.62075 0.62958,0.65519 5.45729,-10.6302 5.45729,-10.6302 0,0 -20.51835,-6.32783 -26.49276,17.24242 -5.9744,23.56156 25.72556,20.39765 28.55297,15.80265 z"
     class="cls-1"
     id="path23"
     style="fill:#171717;stroke-width:0.457213" />
  <path
     d="m 225.79661,175.52396 c 1.98293,0 3.58638,1.87092 3.58638,4.17253 0,2.30161 -1.60345,4.17298 -3.58638,4.17298 -1.97425,0 -3.5777,-1.87092 -3.5777,-4.17298 0,-2.30207 1.60345,-4.17253 3.5777,-4.17253 z"
     class="cls-2"
     id="path24"
     style="fill:#231f20;stroke-width:0.457213" />
  <path
     d="m 225.79661,175.52396 c -1.97425,0 -3.5777,1.87092 -3.5777,4.17253 0,2.30161 1.60345,4.17298 3.5777,4.17298 1.98293,0 3.58638,-1.87092 3.58638,-4.17298 0,-2.30207 -1.60345,-4.17253 -3.58638,-4.17253 z m -4.45692,3.02629 c 1.43108,-6.89706 8.21612,-7.46629 8.21612,-7.46629 4.77559,0 6.72424,2.8713 8.164,8.62121 1.43108,5.74169 -3.44876,15.51782 -10.63843,13.50105 -7.18145,-2.00899 -7.18145,-7.75891 -5.74169,-14.65597 z m -37.07084,-93.3931 c 2.62075,9.6472 15.51782,2.8713 15.51782,2.8713 l 3.49173,10.92282 c -2.82786,4.595 -34.52782,7.75891 -28.55296,-15.80265 5.97395,-23.57025 26.4923,-17.24242 26.4923,-17.24242 0,0 -4.82771,11.28539 -5.45638,10.6302 -4.3106,-4.52641 -13.07858,2.8018 -11.49205,8.62075 z"
     class="cls-3"
     id="path25"
     style="fill:#ffffff;stroke-width:0.457213" />
  <path
     d="m 193.22611,216.22462 a 1.9358404,1.9358404 0 0 1 -3.06058,0 l -12.80197,-15.50959 13.07767,-17.09565 a 1.5865296,1.5865296 0 0 1 2.51742,0 l 13.07858,17.09565 z"
     class="cls-1"
     id="path26"
     style="fill:#171717;stroke-width:0.457213" />
  <path
     d="m 152.93969,170.78266 c 0,0 6.78505,0.56877 8.22435,7.46583 1.43931,6.89706 1.43977,12.64698 -5.75037,14.65597 -7.18144,2.01722 -12.06951,-7.75891 -10.62974,-13.50105 1.43976,-5.74991 3.38794,-8.62075 8.15576,-8.62075 z m 7.34513,8.61252 c 0,-2.30206 -1.60344,-4.17298 -3.58638,-4.17298 -1.97424,0 -3.57769,1.87092 -3.57769,4.17298 0,2.30207 1.60345,4.17253 3.57769,4.17253 1.98294,0 3.58638,-1.87092 3.58638,-4.17253 z"
     class="cls-3"
     id="path27"
     style="fill:#ffffff;stroke-width:0.457213" />
  <path
     d="m 156.69844,175.2222 c 1.98294,0 3.58638,1.87092 3.58638,4.17298 0,2.30207 -1.60344,4.17253 -3.58638,4.17253 -1.97424,0 -3.57769,-1.87092 -3.57769,-4.17253 0,-2.30161 1.60345,-4.17298 3.57769,-4.17298 z"
     class="cls-2"
     id="path28"
     style="fill:#231f20;stroke-width:0.457213" />
  <path
     d="m 152.93969,170.78266 c -4.76782,0 -6.71646,2.87084 -8.15576,8.62075 -1.43977,5.74169 3.4483,15.51782 10.6302,13.50105 7.18968,-2.00899 7.18968,-7.75891 5.74991,-14.65597 -1.43976,-6.89706 -8.22435,-7.46629 -8.22435,-7.46629 z m 21.15617,10.91413 c -2.8713,20.69073 -22.13049,22.99234 -33.33815,12.64743 -11.20767,-10.3449 -0.56878,-25.28617 -0.56878,-25.28617 -9.19913,-6.32783 -11.78512,-14.37112 -5.81941,-20.12195 5.95749,-5.74122 30.82074,16.09619 36.56242,20.69118 5.75037,4.60368 3.28462,11.2159 3.16392,12.06951 z"
     class="cls-1"
     id="path29"
     style="fill:#171717;stroke-width:0.457213" />
  <path
     d="m 259.55723,234.73398 c 0,0 -2.58646,3.87945 0,10.77651 0,0 -2.58646,2.58645 -4.74176,0 0,0 0.43115,5.6036 2.37065,8.62121 0,0 -6.25011,1.72369 -7.97426,0 0,0 2.586,3.4483 0,9.05191 a 0.44349675,0.44349675 0 0 1 -0.1207,-0.0604 c -0.23318,-0.11201 -0.8966,-0.4915 -2.75014,-1.66379 l -2.01768,-1.2674 a 0.45035494,0.45035494 0 0 0 -0.69816,0.34474 c -0.0777,1.21619 -0.60352,3.99147 -3.03453,9.54387 0,0 -0.14631,-1.14669 -3.16391,-3.302 0,0 -0.28485,4.595 -4.1643,6.7503 m -24.85456,-91.53038 c -0.12071,-0.85361 -2.58646,-7.46629 3.15522,-12.06951 5.75037,-4.59499 30.60494,-26.4324 36.57111,-20.69072 5.96572,5.75037 3.37926,13.79412 -5.81941,20.12195 0,0 10.63021,14.9399 -0.57746,25.28526 -11.20766,10.34536 -30.45862,8.04375 -33.32946,-12.64698 z"
     class="cls-5"
     id="path30"
     style="fill:none;stroke:#231f20;stroke-width:0.914426px;stroke-miterlimit:10" />
  <path
     d="m 229.55536,171.08396 c 0,0 -6.78505,0.56923 -8.21612,7.46629 -1.43931,6.89661 -1.43931,12.64698 5.74214,14.65597 7.18967,2.01722 12.06951,-7.75891 10.63843,-13.50105 -1.44022,-5.75037 -3.38795,-8.62121 -8.16445,-8.62121 z M 193.7862,40.16373 C 172.9318,38.793 160.87097,50.10354 160.18103,50.76787 m 51.49409,-6.5953 a 57.163073,57.163073 0 0 0 -3.84516,-1.33643 60.567939,60.567939 0 0 0 -13.94043,-2.67241 m 33.57088,14.03507 a 0.92311333,0.92311333 0 0 0 -0.155,-0.16369 c -3.67279,-3.79349 -8.75929,-7.22442 -15.61291,-9.85385 m -15.69064,95.69425 c 5.43992,-0.23272 42.29541,-2.45707 49.42474,-19.97519 a 15.133755,15.133755 0 0 0 0.983,-3.4483 c 0,0 -0.21489,-13.1906 -16.16431,-6.29354 -15.94942,6.89706 -2.1553,-14.65596 3.01761,-24.57017 3.62936,-6.95696 4.49989,-20.55265 -5.70739,-31.3031 m -32.22576,85.61636 0.65519,-0.0261 m -86.54771,152.74942 c 0,0 -3.0176,18.10427 -2.43968,25.00133 0.56877,6.8966 2.43968,3.4483 2.43968,4.02576 v 0.56923 c 0,0 -2.30161,8.62121 5.17291,13.79412 0,0 -1.14669,7.47407 16.09528,17.81943 0,0 16.16477,6.27616 25.68257,7.77628 33.51876,5.27624 79.89206,2.8713 97.13448,-7.47452 17.24242,-10.34582 16.09527,-17.81988 16.09527,-17.81988 7.46629,-5.17246 5.17291,-13.79367 5.17291,-13.79367 v -0.56877 c 0,-0.57792 1.86223,2.87084 2.43969,-4.02622 0.57746,-6.89706 -2.43969,-25.00133 -2.43969,-25.00133 M 124.67066,234.43222 c 0,0 2.58646,3.87945 0,10.77651 0,0 2.58646,2.58645 4.74176,0 0,0 -0.43115,5.6036 -2.37065,8.62121 0,0 6.2501,1.72369 7.97425,0 0,0 -2.58599,3.4483 0,9.05191 a 1.5590968,1.5590968 0 0 0 0.29308,-0.15546 c 0.33651,-0.1806 1.05159,-0.60306 2.57777,-1.56824 l 2.00899,-1.26785 a 0.4489833,0.4489833 0 0 1 0.69816,0.3452 c 0.0864,1.21527 0.61221,3.99147 3.04321,9.54341 0,0 0.13808,-1.14669 3.15523,-3.302 0,0 0.29353,4.59499 4.17299,6.7503 m 23.13041,-91.53042 c 0.1207,-0.85361 2.58645,-7.46629 -3.16392,-12.06951 -5.74168,-4.59499 -30.60493,-26.4324 -36.56242,-20.69072 -5.96571,5.75037 -3.37926,13.79412 5.81941,20.12195 0,0 -10.63843,14.94035 0.56878,25.28571 11.2072,10.34537 30.46731,8.0433 33.33815,-12.64743 z"
     class="cls-5"
     id="path31"
     style="fill:none;stroke:#231f20;stroke-width:0.914426px;stroke-miterlimit:10" />
  <path
     d="m 152.93969,170.78266 c 0,0 6.78505,0.56877 8.22435,7.46583 1.43931,6.89706 1.43977,12.64698 -5.75037,14.65597 -7.18144,2.01722 -12.06951,-7.75891 -10.62974,-13.50105 1.43976,-5.74991 3.38794,-8.62075 8.15576,-8.62075 z M 227.55551,54.28521 c 0,0 -0.0348,-0.0348 -0.0951,-0.0864 -0.0343,-0.043 -0.0947,-0.0947 -0.155,-0.16369 a 54.480603,54.480603 0 0 0 -15.61291,-9.85385 0.03017607,0.03017607 0 0 0 -0.0174,-0.009 51.302515,51.302515 0 0 0 -17.78559,-4.00838 0.41514953,0.41514953 0 0 0 -0.10287,0 51.347779,51.347779 0 0 0 -17.38919,2.37065 c -6.83625,2.12969 -12.15547,4.98316 -16.21598,8.23349 -0.009,0.0169 -0.0261,0.0256 -0.0347,0.0343 -13.82841,11.09519 -13.18145,26.82012 -9.18129,34.48439 5.17245,9.91421 18.96611,31.46723 3.0176,24.57063 -15.94851,-6.8966 -16.16477,6.29308 -16.16477,6.29308 a 15.968626,15.968626 0 0 0 0.75852,2.90559 c 7.12109,19.44893 50.32134,20.54396 50.32134,20.54396 l 7.0868,0.2757 h 0.0169 l 0.62089,0.0261"
     class="cls-5"
     id="path32"
     style="fill:none;stroke:#231f20;stroke-width:0.914426px;stroke-miterlimit:10" />
  <path
     d="m 177.3631,200.71503 13.07813,-17.09565 a 1.5865296,1.5865296 0 0 1 2.51742,0 l 13.07858,17.09565 m -28.67413,0 12.80243,15.50959 a 1.9358404,1.9358404 0 0 0 3.06058,0 l 12.81112,-15.50959 M 195.7609,76.5364 c 0.62913,0.65519 5.45684,-10.6302 5.45684,-10.6302 0,0 -20.51835,-6.32783 -26.49276,17.24242 -5.9744,23.56156 25.72556,20.39765 28.55297,15.80265 l -3.49128,-10.92282 c 0,0 -12.89707,6.7759 -15.51782,-2.8713 -1.58653,-5.81895 7.18145,-13.14716 11.49205,-8.62075 z"
     class="cls-6"
     id="path33"
     style="fill:none;stroke:#231f20;stroke-width:0.914426px;stroke-linecap:round;stroke-miterlimit:10" />
  <path
     d="m 249.49625,262.46807 a 5.4010588,5.4010588 0 0 0 -0.40509,0.65518 c -3.13831,5.56063 2.7067,11.41433 2.7067,11.41433 -4.59499,5.17291 6.3196,7.46629 6.3196,7.46629 -1.72415,6.8966 6.32783,2.30161 6.31046,4.02576 -0.009,1.72415 2.88821,8.62121 10.36273,6.89706 7.46584,-1.72415 10.91414,-17.24242 6.89706,-33.90692 -4.02622,-16.6732 -8.62121,-38.44157 -7.88875,-45.40767 0.73245,-6.9661 -4.18122,-35.63062 -5.33614,-43.68306 -1.14669,-8.04375 2.44838,-27.87217 2.44838,-27.87217 0.0777,-4.00061 0.13762,-6.31914 0.13762,-6.31914 1.44022,-5.17291 2.75014,-12.93182 2.75014,-12.93182 l -1.80142,2.29293 c 1.80142,-2.29293 0,-5.17246 0,-5.17246 0,0 -3.24164,1.43977 -1.51795,0 1.72461,-1.43107 2.29384,-3.73314 0,-3.4483 -2.30161,0.29262 -25.00087,3.4483 -25.00087,3.4483 M 134.65391,261.60622 a 7.5577332,7.5577332 0 0 1 0.65519,1.12017 c 2.57777,5.41432 -2.9568,10.94934 -2.9568,10.94934 4.60368,5.17246 -6.31914,7.46584 -6.31914,7.46584 1.72369,6.89706 -6.3196,2.30206 -6.31092,4.02622 0.0174,1.70677 -2.84478,8.51788 -10.18168,6.93135 a 1.5220625,1.5220625 0 0 1 -0.17236,-0.0347 c -7.47452,-1.72369 -10.922822,-17.24197 -6.8966,-33.90693 4.01707,-16.67319 8.62075,-38.44156 7.88829,-45.40721 -0.73245,-6.96564 4.18121,-35.63107 5.32791,-43.68351 1.14623,-8.0433 -2.44838,-27.87171 -2.44838,-27.87171 -0.0777,-4.00062 -0.13808,-6.3196 -0.13808,-6.3196 -1.44022,-5.17246 -2.74145,-12.93182 -2.74145,-12.93182 l 1.80142,2.29338 c -1.80142,-2.29338 0,-5.17291 0,-5.17291 0,0 3.24164,1.44022 1.51795,0 -1.72461,-1.43108 -2.30207,-3.73269 0,-3.4483 2.20651,0.28439 23.24197,3.20735 24.89754,3.44007 a 0.47413003,0.47413003 0 0 1 0.10333,0.008"
     class="cls-5"
     id="path34"
     style="fill:none;stroke:#231f20;stroke-width:0.914426px;stroke-miterlimit:10" />
  <text
     xml:space="preserve"
     style="font-size:86.983px;font-family:Palatino;-inkscape-font-specification:Palatino;fill:#ffffff;stroke:#999999;stroke-width:0.90359"
     x="71.042618"
     y="163.35786"
     id="text134"
     transform="scale(0.57370101,1.7430682)"><tspan
       sodipodi:role="line"
       id="tspan134"
       style="fill:#ffffff;stroke:#999999;stroke-width:0.90359"
       x="71.042618"
       y="163.35786">κυβερναύτ.ευ</tspan></text>
</svg>
